<svg xmlns="http://www.w3.org/2000/svg" viewBox="139 553 7754 1156" role="img" aria-label="HappySubs">
  <title>HappySubs</title>
  <!-- Wordmark in #f4f4f4 so one file serves light and dark; the bar
       below it keeps the brand red. -->
  <g fill="#f4f4f4">
    <path d="M139.4,1483.69v-914.31h351.02v347.85h233.17v-347.85h351.02v914.31h-351.02v-353.56h-233.17v353.56H139.4Z"/>
    <path d="M1397.82,1491.99c-47.39,0-89.15-9.46-125.27-28.39-36.07-18.88-64.29-44.42-84.65-76.6-20.28-32.19-30.41-68.37-30.41-108.54v-.57c0-46.3,11.57-85.37,34.72-117.22,23.19-31.81,56.88-56.84,101.06-75.08,44.18-18.25,98.21-29.57,162.08-33.96l292.03-19.77v153.27l-244.39,17.55c-25.01,1.56-43.09,7.03-54.24,16.41s-16.73,21.71-16.73,37v.51c0,16.14,6.46,28.39,19.39,36.75,12.93,8.41,30.27,12.61,52.02,12.61,18.59,0,34.79-2.91,48.6-8.74,13.81-5.83,24.61-13.88,32.38-24.14,7.77-10.31,11.66-21.82,11.66-34.53v-220.81c0-17.28-5.64-30.98-16.92-41.12-11.28-10.18-28.79-15.27-52.53-15.27-24.25,0-42.92,4.46-56.01,13.37-13.14,8.91-20.91,19.41-23.32,31.49l-1.27,6.4h-250.72l.63-8.43c3.84-49.42,19.83-92.19,47.96-128.31,28.13-36.12,67.44-64.04,117.92-83.76,50.48-19.73,110.95-29.59,181.4-29.59s125.6,10.2,175.83,30.6c50.18,20.44,89.28,48.87,117.28,85.28,27.96,36.45,41.95,78.59,41.95,126.41v478.89h-282.21v-93.27h-5.45c-13.18,21.67-28.98,40.15-47.39,55.44-18.46,15.25-39.79,26.76-64,34.53-24.25,7.73-51.39,11.6-81.42,11.6Z"/>
    <path d="M1972.57,1705.45v-921.97h262.25v126.34h5.77c10.94-29.61,26.21-55,45.81-76.16,19.64-21.16,42.98-37.36,70.01-48.6,27.03-11.19,57.05-16.79,90.04-16.79,58.76,0,108.5,14.05,149.22,42.14,40.76,28.09,71.79,69.3,93.08,123.62,21.29,54.32,31.93,120.64,31.93,198.95v.63c0,77.85-10.43,143.94-31.3,198.26-20.87,54.32-51.45,95.74-91.75,124.25-40.34,28.55-89.68,42.83-148.01,42.83-33.84,0-64.59-5.51-92.25-16.54-27.71-10.98-51.47-26.63-71.28-46.95-19.85-20.32-35.23-44.65-46.13-72.99h-5.13v342.98h-262.25ZM2344.37,1287.96c22.56,0,42.07-6.27,58.55-18.82,16.47-12.55,29.21-30.33,38.21-53.35,9-22.98,13.5-50.37,13.5-82.18v-.63c0-32.23-4.6-59.86-13.81-82.88-9.21-23.02-22.05-40.59-38.52-52.72-16.52-12.12-35.82-18.18-57.91-18.18s-41.54,6.06-58.23,18.18c-16.73,12.12-29.67,29.67-38.84,52.65-9.17,23.02-13.75,50.88-13.75,83.57v.63c0,32.23,4.58,59.86,13.75,82.88,9.17,23.02,21.99,40.57,38.46,52.65,16.52,12.12,36.05,18.18,58.61,18.18Z"/>
    <path d="M2804.12,1705.45v-916.9h243.62v124.51h5.32c11.32-29.15,26.84-54.13,46.57-74.96,19.73-20.82,43.09-36.77,70.08-47.84,26.99-11.07,56.88-16.6,89.66-16.6,58.42,0,108.09,14.05,149.03,42.14,40.89,28.09,72.11,69.11,93.65,123.05,21.54,53.98,32.31,119.56,32.31,196.74v.63c0,76.79-10.6,142.16-31.81,196.1-21.16,53.94-52,95.15-92.51,123.62-40.47,28.47-89.68,42.71-147.63,42.71-33.5,0-64.04-5.45-91.62-16.35-27.63-10.86-51.41-26.32-71.34-46.38-19.98-20.06-35.63-44.1-46.95-72.11h-4.75v341.64h-243.62ZM3167.18,1301.59c24.54,0,45.79-6.72,63.74-20.15,17.95-13.47,31.81-32.55,41.56-57.22,9.72-24.67,14.57-54.01,14.57-88.01v-.63c0-34.51-4.96-64.1-14.89-88.77s-23.87-43.53-41.82-56.58c-17.91-13.05-38.97-19.58-63.17-19.58s-45.07,6.57-63.23,19.71c-18.16,13.09-32.27,31.98-42.33,56.65-10.05,24.67-15.08,54.39-15.08,89.15v.63c0,34.3,5.03,63.78,15.08,88.45,10.1,24.67,24.12,43.57,42.07,56.71,17.95,13.09,39.12,19.64,63.49,19.64Z"/>
    <path d="M3750.43,1708.37c-21.88,0-42.9-1.01-63.04-3.04-20.15-2.03-36.73-4.16-49.74-6.4v-162.84c7.52,1.48,17.74,3.04,30.67,4.69,12.93,1.69,28.11,2.53,45.56,2.53,23.74,0,42.43-3.78,56.07-11.34,13.6-7.56,23.06-18.92,28.39-34.09l5.07-14.07-237.29-690.2h248.5l133.76,564.87-24.9-43.34h35.36l-25.41,43.34,133.44-564.87h237.35l-219.8,687.03c-18.88,59.31-43.7,105.52-74.45,138.63-30.75,33.07-67.63,56.2-110.63,69.38-43.04,13.14-92.68,19.71-148.9,19.71Z"/>
    <path d="M4327.21,1214.53h221.19c2.91,20.99,11.83,39.66,26.74,56.01,14.87,16.39,34.38,29.21,58.55,38.46,24.12,9.25,51.13,13.88,81.04,13.88s54.83-3.93,76.54-11.79c21.75-7.86,38.76-18.86,51.01-33.01,12.25-14.15,18.37-30.96,18.37-50.44,0-22.68-7.94-41.25-23.82-55.69-15.88-14.45-46.97-28.77-93.27-42.96l-87.44-26.8c-76.25-23.32-133.95-55.42-173.1-96.31-39.16-40.93-58.74-92.55-58.74-154.86s15.76-112.02,47.27-156.63c31.47-44.61,74.85-79.18,130.14-103.72,55.25-24.54,118.44-36.81,189.58-36.81,74.68,0,139.44,11.3,194.27,33.9,54.83,22.64,97.2,55.08,127.1,97.32,29.95,42.24,45.07,92.91,45.37,152h-214.23c-.63-21.33-7.16-40.04-19.58-56.14-12.42-16.05-29.57-28.6-51.45-37.64-21.84-9.04-47.48-13.56-76.92-13.56s-52.19,4.18-72.55,12.55c-20.32,8.41-35.82,19.58-46.51,33.52-10.69,13.94-16.03,29.44-16.03,46.51,0,22.13,8.58,41.06,25.72,56.77,17.15,15.67,46.3,29.76,87.44,42.26l90.86,26.74c80.55,23.65,139.65,54.53,177.29,92.63,37.64,38.1,56.46,89.15,56.46,153.14,0,60.32-15.99,113.4-47.96,159.23s-76.96,81.65-134.96,107.46c-58,25.77-126.32,38.65-204.97,38.65s-144.99-11.21-202.19-33.64c-57.19-22.43-101.48-54.93-132.87-97.51-31.43-42.54-47.54-93.71-48.34-153.52Z"/>
    <path d="M5959.97,793.74l-146.81,689.94h-211.18l23.32-108.98h-4.5c-13.14,24.8-30.69,46.66-52.65,65.58-21.97,18.97-47.16,33.64-75.59,44.04-28.39,10.39-58.99,15.59-91.81,15.59-43.76,0-81.82-8.38-114.18-25.15-32.36-16.81-57.3-40.28-74.83-70.39-17.57-30.16-26.36-65.2-26.36-105.12,0-14.4.76-29.61,2.28-45.62,1.56-16.01,3.82-30.6,6.78-43.78l88.14-416.09h218.03l-81.42,380.87c-1.27,7.31-2.34,15.1-3.23,23.38-.84,8.28-1.27,15.88-1.27,22.81,0,32.36,8.85,57.15,26.55,74.39,17.74,17.23,43.13,25.85,76.16,25.85,23.44,0,44.65-5.26,63.62-15.78,18.92-10.56,34.85-25.45,47.77-44.67,12.93-19.22,22.18-42.07,27.75-68.56l84.71-398.29h218.72Z"/>
    <path d="M6385.25,1494.14c-33.96,0-65.45-5.72-94.47-17.17-29.06-11.45-53.71-27.54-73.94-48.28-20.28-20.78-34.66-44.94-43.15-72.49h-4.56l-27.12,127.48h-211.5l195.03-914.31h217.9l-70.08,324.73h5.26c20.74-34.64,49.59-61.78,86.55-81.42,36.96-19.6,77.64-29.4,122.03-29.4,48.24,0,89.95,10.86,125.14,32.57,35.19,21.67,62.39,52.67,81.61,93.01,19.18,40.34,28.77,88.66,28.77,144.97,0,61.38-8.28,118.61-24.84,171.71-16.56,53.14-39.94,99.88-70.14,140.22-30.16,40.34-65.81,71.81-106.95,94.41-41.18,22.64-86.36,33.96-135.53,33.96ZM6332.22,1320.09c23.57,0,45.47-6,65.71-17.99,20.19-12,37.78-28.74,52.78-50.25,14.95-21.46,26.61-46.32,34.98-74.58,8.36-28.22,12.55-58.36,12.55-90.42,0-41.35-10.1-74.26-30.29-98.72-20.19-24.5-47.71-36.75-82.56-36.75-23.23,0-45.09,6.23-65.58,18.69-20.53,12.46-38.48,29.65-53.86,51.58-15.38,21.88-27.44,46.95-36.18,75.21-8.7,28.26-13.05,58.25-13.05,89.97,0,39.88,10.54,72.04,31.62,96.5,21.08,24.5,49.04,36.75,83.89,36.75Z"/>
    <path d="M6838.16,1003.91c0-45.41,12.5-85.05,37.51-118.93s60.09-60.24,105.24-79.08c45.11-18.84,98.25-28.26,159.42-28.26,57.41,0,108.2,9.61,152.38,28.83,44.18,19.18,79.05,45.89,104.61,80.15,25.56,34.22,39.01,73.71,40.36,118.49h-196.17c-1.06-15.71-6.1-29.65-15.14-41.82-9.08-12.17-21.27-21.63-36.56-28.39-15.25-6.76-32.8-10.14-52.65-10.14-18.88,0-35.21,2.49-48.98,7.48-13.77,5.03-24.37,12.06-31.81,21.1-7.39,9.04-11.09,19.62-11.09,31.74,0,15.16,6.38,27.58,19.14,37.26,12.76,9.67,36.71,20.36,71.85,32.06l73.5,24.52c65.26,21.71,111.69,47.04,139.27,75.97,27.63,28.89,41.44,66.38,41.44,112.47s-13.03,87.04-39.09,121.97c-26.06,34.93-62.5,62.09-109.3,81.48-46.84,19.39-101.72,29.08-164.61,29.08s-119.63-9.69-167.27-29.08c-47.61-19.39-84.76-46.76-111.45-82.12-26.7-35.36-40.99-76.63-42.9-123.81h207.07c2.15,25.64,13.94,46.59,35.36,62.85,21.46,16.31,49.89,24.46,85.28,24.46,18.84,0,35.04-2.51,48.6-7.54,13.52-5.07,23.95-12.21,31.3-21.42,7.39-9.21,11.09-19.92,11.09-32.12,0-14.32-6.21-26.1-18.63-35.36-12.46-9.25-35.57-19.45-69.32-30.6l-61.84-20.66c-63.87-21.5-110.92-48.45-141.17-80.85-30.29-32.36-45.43-72.27-45.43-119.75Z"/>
    <rect x="7532.75" y="1241.83" width="359.99" height="136.04"/>
  </g>
  <g fill="#e4262c">
    <rect x="7532.75" y="1377.87" width="359.99" height="136.04"/>
  </g>
</svg>
